# xmcd
#
# Track frame offsets: 
#        150
#        18134
#        35392
#        49481
#        74605
#        89966
#        107645
#        139527
#        149256
#        167486
#        186228
#        211763
#        225201
#        251266
#
# Disc length: 3548 seconds
#
# Revision: 2
# Processed by: cddbd v1.5.2PL0 Copyright (c) Steve Scherf et al.
# Submitted via: ExactAudioCopy v0.99pb5
#
DISCID=bc0dda0e
DTITLE=Lil' Ed and The Blues Imperials - Full Tilt
DYEAR=2008
DGENRE=Blues
TTITLE0=Hold That Train
TTITLE1=Housekeeping Job
TTITLE2=Don't Call Me
TTITLE3=Check My Baby's Oil
TTITLE4=First I look at the Purse
TTITLE5=Love Don't Live Here Anymore
TTITLE6=Life Got in the Way
TTITLE7=Candy Sweet
TTITLE8=Woman, Take A Bow
TTITLE9=My Baby Moves Me
TTITLE10=Dying to Live
TTITLE11=Open Invitation
TTITLE12=Every Man Needs a Good Woman
TTITLE13=Take Five
EXTD=YEAR: 2008
EXTT0=
EXTT1=
EXTT2=
EXTT3=
EXTT4=
EXTT5=
EXTT6=
EXTT7=
EXTT8=
EXTT9=
EXTT10=
EXTT11=
EXTT12=
EXTT13=
PLAYORDER=
